<svg width="35" height="35" fill="none" xmlns="http://www.w3.org/2000/svg"><path d="M28.11 10.172l-7.657-7.656c-.219-.22-.437-.329-.765-.329H8.75a2.194 2.194 0 00-2.188 2.188v26.25c0 1.203.985 2.188 2.188 2.188h17.5a2.194 2.194 0 002.188-2.188V10.937c0-.328-.11-.546-.329-.765zm-8.422-5.36l6.125 6.125h-6.125V4.814zm6.562 25.813H8.75V4.375h8.75v6.563c0 1.203.984 2.187 2.188 2.187h6.562v17.5z" fill="#C92127"/><path d="M10.938 24.063h13.124v2.187H10.938v-2.188zm0-6.563h13.124v2.188H10.938V17.5z" fill="#C92127"/></svg>