<svg width="50" height="54" fill="none" xmlns="http://www.w3.org/2000/svg"><g clip-path="url(#clip0)" fill="#E7272E"><path d="M49.63 22.656l-6.385-4.505V3.096c0-.487-.37-.881-.828-.881H7.582c-.457 0-.828.394-.828.881v15.056L.371 22.655A.896.896 0 000 23.39v27.29c0 .486.37.88.828.88h48.344c.457 0 .828-.394.828-.88V23.39a.896.896 0 00-.37-.734zM6.753 25.737l-2.597-1.466h2.597v1.466zm-5.098-.882L20.7 35.605 1.656 49.038V24.855zM25 34.685l21.424 15.113H3.575L25 34.686zm4.3.92l19.044-10.75v24.183L29.3 35.605zM43.245 24.27h2.599l-2.6 1.467V24.27zm3.18-1.762h-3.18v-2.243l3.18 2.243zM41.588 3.977v22.696l-13.86 7.823-2.272-1.602a.787.787 0 00-.915 0l-2.271 1.602-13.86-7.824V3.977h33.178zM6.754 22.51H3.576l3.178-2.242v2.242z"/><path d="M25 25.39h6.597c.458 0 .828-.395.828-.882 0-.486-.37-.881-.828-.881H25c-3.18 0-5.77-2.754-5.77-6.14v-.26c0-3.385 2.59-6.14 5.77-6.14 3.182 0 5.77 2.755 5.77 6.14v.65c0 .733-.56 1.33-1.249 1.33-.689 0-1.249-.597-1.249-1.33v-1.235c0-2.099-1.605-3.806-3.577-3.806s-3.577 1.707-3.577 3.806c0 2.1 1.605 3.807 3.577 3.807a3.44 3.44 0 002.356-.946c.513.879 1.428 1.466 2.47 1.466 1.602 0 2.905-1.387 2.905-3.092v-.65c0-4.357-3.33-7.902-7.425-7.902s-7.426 3.545-7.426 7.902v.26c0 4.358 3.33 7.903 7.425 7.903zm-.306-6.704c-1.06 0-1.92-.916-1.92-2.044 0-1.127.86-2.044 1.92-2.044s1.92.917 1.92 2.044c0 1.128-.86 2.044-1.92 2.044z"/></g><defs><clipPath id="clip0"><path fill="#fff" transform="translate(0 .284)" d="M0 0h50v53.207H0z"/></clipPath></defs></svg>