<svg width="50" height="54" fill="none" xmlns="http://www.w3.org/2000/svg"><path d="M36.17 47.83c1.194 0 1.196-1.977 0-1.977H17.341V35.86l27.058 4.617 1.774 5.375H43.66c-1.194 0-1.195 1.977 0 1.977h3.826c.629 0 1.086-.683.877-1.316l-6.521-19.75a.934.934 0 00-.877-.66h-6.841c1.058-1.443 1.945-3.022 2.502-4.764 1.496-4.68.023-10.481-3.427-13.493a9.614 9.614 0 00-6.32-2.387 9.616 9.616 0 00-6.318 2.387c-3.369 2.94-4.877 8.366-3.586 12.899.552 1.94 1.529 3.717 2.735 5.357H9.112a.934.934 0 00-.875.655l-6.646 19.75c-.213.634.243 1.323.875 1.323H36.17zM21.74 9.377a7.821 7.821 0 015.14-1.938 7.82 7.82 0 015.14 1.938c1.397 1.22 2.453 3.06 2.974 5.185.514 2.096.469 4.277-.127 6.142-1.33 4.156-4.815 7.32-7.987 10.105-3.357-2.963-6.937-6.46-8.127-10.636-1.064-3.739.22-8.38 2.987-10.796zm4.306 23.264c.595.52 1.065.528 1.669 0 1.535-1.347 3.246-2.848 4.79-4.56h7.802L43.7 38.356l-26.358-4.497V28.08h3.98c1.48 1.657 3.136 3.166 4.724 4.559.252.22-1.588-1.393 0 0zM9.767 28.08h5.715v5.46L8.34 32.322l1.428-4.242zm5.715 7.463v10.31H3.786l3.916-11.637 7.78 1.327z" fill="#E7272E"/><path d="M32.608 16.454c0-3.361-2.57-6.096-5.73-6.096-3.158 0-5.727 2.735-5.727 6.096 0 3.362 2.57 6.097 5.728 6.097 3.159 0 5.729-2.735 5.729-6.096zm-9.6 0c0-2.27 1.737-4.118 3.87-4.118 2.135 0 3.87 1.848 3.87 4.118 0 2.271-1.735 4.12-3.87 4.12-2.133 0-3.87-1.848-3.87-4.12zm16.926 29.399c-.505 0-.93.452-.93.99 0 .537.425.988.93.988.49 0 .905-.425.927-.945.024-.554-.405-1.033-.927-1.033z" fill="#E7272E"/></svg>