<svg width="24" height="24" fill="none" xmlns="http://www.w3.org/2000/svg"><path d="M20.649 10.369H12.18v3.48h4.837a4.13 4.13 0 01-1.795 2.714c-.806.54-1.835.858-3.045.858-2.341 0-4.322-1.582-5.03-3.708a5.45 5.45 0 01-.28-1.708c0-.593.103-1.17.28-1.709.71-2.123 2.691-3.705 5.033-3.705 1.32 0 2.503.454 3.436 1.345l2.578-2.58c-1.559-1.454-3.59-2.344-6.014-2.344a8.985 8.985 0 00-8.989 8.995c0 1.453.347 2.824.957 4.038A8.985 8.985 0 0012.18 21c2.428 0 4.462-.806 5.948-2.18 1.7-1.565 2.681-3.872 2.681-6.611 0-.638-.056-1.25-.161-1.84z" fill="#585858"/></svg>