<svg width="150" height="25" fill="none" xmlns="http://www.w3.org/2000/svg"><g clip-path="url(#clip0)"><path fill-rule="evenodd" clip-rule="evenodd" d="M6.414 1.032a.44.44 0 01.395-.659A44.172 44.172 0 0114.87.88a11.554 11.554 0 018.61 11.356A11.664 11.664 0 0114.696 23.7c-2.61.382-5.249.537-7.886.462a.46.46 0 01-.395-.66c.505-.988 1.471-2.855 2.306-4.173a.396.396 0 01.417-.197c5.997.637 8.962-2.944 8.962-6.897 0-3.449-2.723-7.578-8.983-6.941a.483.483 0 01-.44-.22 103.084 103.084 0 01-2.262-4.042z" fill="#C92127"/><path d="M1.208 6.59L0 4.635a.461.461 0 01.395-.703H5.03a.461.461 0 01.395.241L6.59 6.216a.461.461 0 01-.396.681h-4.59a.461.461 0 01-.396-.307zm2.46 4.393L2.658 9.18a.461.461 0 01.417-.615h4.569a.483.483 0 01.395.22l1.033 1.801a.461.461 0 01-.286.681H4.064a.439.439 0 01-.396-.285zm4.042 4.81H3.119a.462.462 0 01-.395-.681l.988-1.757a.483.483 0 01.395-.176h4.679a.46.46 0 01.395.681l-1.01 1.757a.483.483 0 01-.461.176zm-2.79 4.635H.527a.461.461 0 01-.417-.66l1.164-2.042a.416.416 0 01.395-.154h4.393a.462.462 0 01.528.593l-1.23 2.043a.483.483 0 01-.44.22zm2.79-4.635H3.119a.462.462 0 01-.395-.681l.988-1.757a.483.483 0 01.395-.176h4.679a.46.46 0 01.395.681l-1.01 1.757a.483.483 0 01-.461.176zm25.501-5.096l2.944-5.052L38.988.966a1.67 1.67 0 01.395-.505c.184-.114.4-.168.615-.154h4.394c.336 0 .49.066.46.198a.9.9 0 01-.109.418l-9.599 14.453-1.142 8.127a1.449 1.449 0 01-.176.527s-.263.154-.57.154h-3.56c-.46 0-.658-.22-.592-.681l1.098-8.062L24.667.966a.572.572 0 010-.417.461.461 0 01.461-.242h3.998c.351 0 .57 0 .659.176.117.173.2.367.241.571l1.56 4.745 1.362 4.898h.263zm18.297-2.526l-2.196 15.376c-.023.21-.107.408-.242.57a.966.966 0 01-.615.133H45.03a.879.879 0 01-.572-.154.572.572 0 010-.55l2.944-20.844a3.162 3.162 0 01.703-1.867 2.526 2.526 0 011.779-.528h2.239c.203.037.397.111.571.22.162.14.303.303.418.483l.439.791 4.393 9.797 2.087 4.744h.175L62.403.966a.857.857 0 01.242-.57.922.922 0 01.637-.154h3.272c.506 0 .703.241.637.724l-2.921 21a3.843 3.843 0 01-.68 1.712 2.197 2.197 0 01-1.78.637h-2.241a1.715 1.715 0 01-.593-.22 1.78 1.78 0 01-.439-.46 4.943 4.943 0 01-.395-.77l-4.393-9.84-2.065-4.744-.176-.11zm30.378 11.092H74.33l-1.91 4.393a1.253 1.253 0 01-.352.484 1.032 1.032 0 01-.66.153h-4.04c-.22 0-.374 0-.418-.197a.768.768 0 010-.483l9.928-21.416c.201-.6.585-1.123 1.098-1.494a3.075 3.075 0 011.56-.396h2.02a5.47 5.47 0 01.923 0c.237.024.463.107.66.242.19.16.342.363.438.593.13.317.22.65.264.989l4.02 21.438a.77.77 0 010 .439c0 .176-.198.242-.462.242h-3.931a1.58 1.58 0 01-.615 0c-.132 0-.242-.198-.286-.462l-.68-4.525zm-5.799-4.239h5.184l-.615-4.393-.505-4.898h-.242l-1.955 4.898-1.867 4.393zm35.65-5.469h-.176l-2.043 3.932-3.558 6.457a3.97 3.97 0 01-.879 1.208 2.194 2.194 0 01-1.208.308h-1.801a1.624 1.624 0 01-1.032-.308 2.972 2.972 0 01-.527-1.208l-1.67-5.798-1.12-4.174h-.198l-1.91 13.597c0 .33-.132.505-.242.57a1 1 0 01-.593 0h-3.405a.944.944 0 01-.55 0c-.13 0-.175-.24-.13-.57l2.942-20.867A3.01 3.01 0 0194.45.857a2.328 2.328 0 011.735-.55H97.9c.474-.05.95.075 1.34.352.325.353.552.784.658 1.252l2.307 8.259 1.428 5.579h.131l3.185-5.799 4.393-7.973c.268-.507.642-.95 1.099-1.296a2.875 2.875 0 011.603-.373h1.779a2.197 2.197 0 011.538.46 2.188 2.188 0 01.263 1.758l-2.965 21.043c0 .33-.132.505-.242.57-.2.06-.414.06-.615 0h-3.36a1.055 1.055 0 01-.615.023c-.11 0-.154-.242-.11-.571l2.021-14.036zm13.025 14.607a.967.967 0 01-.615.131h-3.514a.943.943 0 01-.615-.153.562.562 0 010-.55l2.987-22.536a.924.924 0 01.285-.549.947.947 0 01.615-.154h3.493a.922.922 0 01.615.132v.571l-3.009 22.493c-.014.225-.099.44-.242.615zM143.059 0a17.78 17.78 0 013.361.33c1.131.204 2.221.59 3.229 1.142.263.131.373.285.351.417-.058.263-.139.52-.242.769l-.988 2.328a.967.967 0 01-.439.571c-.132.088-.352.088-.659 0a11.422 11.422 0 00-4.393-.835 5.782 5.782 0 00-2.944.703 6.239 6.239 0 00-2.196 2.043 9.755 9.755 0 00-1.23 3.12 17.561 17.561 0 00-.418 3.997 10.26 10.26 0 00.22 2.196c.134.619.396 1.202.769 1.714a3.45 3.45 0 001.45 1.098 5.777 5.777 0 002.196.373c.988.01 1.972-.123 2.921-.395.879-.286 1.692-.55 2.439-.835.329-.131.549-.175.637 0 .151.133.259.31.307.505l1.142 2.483a.969.969 0 010 .702 1.052 1.052 0 01-.461.396 15.371 15.371 0 01-4.064 1.515c-1.317.258-2.655.39-3.997.396a11.597 11.597 0 01-4.152-.66 7.273 7.273 0 01-2.657-2.108 7.687 7.687 0 01-1.626-3.053c-.35-1.34-.52-2.722-.505-4.107a20.465 20.465 0 01.879-6.283 13.94 13.94 0 012.482-4.678 10.562 10.562 0 013.778-2.834 11.154 11.154 0 014.81-1.01z" fill="#1B5C7F"/></g><defs><clipPath id="clip0"><path fill="#fff" d="M0 0h150v24.623H0z"/></clipPath></defs></svg>