<svg width="50" height="54" fill="none" xmlns="http://www.w3.org/2000/svg"><g clip-path="url(#clip0)"><path d="M49.967 44.077c-.16-1.279-.853-2.381-1.903-3.025l-12.336-7.557c-1.51-.926-3.427-.656-4.66.656l-2.43 2.585c-.646.688-1.669.75-2.378.142a71.928 71.928 0 01-5.606-5.365 73.363 73.363 0 01-5.041-5.965 1.985 1.985 0 01.133-2.531l2.43-2.586c1.232-1.312 1.486-3.351.616-4.96L11.69 2.346C11.085 1.228 10.05.49 8.848.321 7.646.15 6.465.578 5.608 1.49l-3.66 3.895c-2.556 2.72-2.597 7.693-.116 14.006 2.385 6.07 6.836 12.751 12.534 18.814 5.697 6.063 11.976 10.8 17.68 13.338 2.92 1.299 5.535 1.948 7.742 1.948 2.278 0 4.122-.69 5.419-2.072l3.661-3.895c.857-.912 1.257-2.169 1.099-3.447zM34.92 34.989l12.335 7.557a2.38 2.38 0 011.105 1.757 2.481 2.481 0 01-.419 1.731l-16.393-9.956.666-.708c.715-.762 1.829-.919 2.706-.381zM8.635 2.029c.698.099 1.3.527 1.65 1.177l7.103 13.126c.505.934.358 2.118-.358 2.88l-.612.651L7.011 2.476a2.13 2.13 0 011.624-.446zm35.427 48.172c-2.03 2.16-6.182 2.07-11.391-.249-5.514-2.453-11.608-7.058-17.16-12.966-5.552-5.908-9.879-12.393-12.185-18.26-2.178-5.543-2.263-9.961-.233-12.122L5.81 3.712l9.421 17.413-.632.673c-1.232 1.312-1.34 3.388-.25 4.83a75.096 75.096 0 005.159 6.104 73.652 73.652 0 005.735 5.489c1.355 1.16 3.307 1.046 4.54-.266l.576-.613 16.416 9.97-2.715 2.889z" fill="#E7272E"/></g><defs><clipPath id="clip0"><path fill="#fff" transform="translate(0 .284)" d="M0 0h50v53.207H0z"/></clipPath></defs></svg>