<svg width="55" height="55" fill="none" xmlns="http://www.w3.org/2000/svg"><g clip-path="url(#clip0)" fill="#E7272E"><path d="M49.443 49.242h.008c.447 0 .812-.36.816-.81.003-.373.01-1.14.016-2.078h.44a.816.816 0 100-1.633h-.429c.015-2.418.024-5.115-.006-5.47-.055-.663-.445-1.202-.993-1.372-.26-.08-.93-.184-1.559.587-.555.681-3.323 5.682-3.872 6.677a.816.816 0 00.715 1.21h4.071c-.005.733-.01 1.438-.016 2.066a.816.816 0 00.81.823zm-3.479-4.52c1.074-1.928 2.156-3.826 2.709-4.725.006.942 0 2.802-.012 4.724h-2.697zm-5.832-1.402a110.178 110.178 0 01-2.98 4.087c-.599.785-.8 1.05-.656 1.52.083.27.288.477.563.569.395.131 4.098.071 5.255.057a.816.816 0 00-.02-1.633c-1.23.016-2.545.025-3.497.022a116.29 116.29 0 002.672-3.685c.53-.758 1.236-1.998 1.236-2.971 0-1.83-1.489-3.32-3.32-3.32a3.325 3.325 0 00-3.257 2.677.816.816 0 001.602.315 1.69 1.69 0 011.656-1.36 1.69 1.69 0 011.686 1.641c-.013.041.033.691-.94 2.082z"/><path d="M48.586 26.686a.816.816 0 00-1.14-.184l-1.033.745c.033-.482.05-.965.05-1.447 0-11.526-9.377-20.903-20.902-20.903-11.526 0-20.903 9.377-20.903 20.903 0 11.525 9.377 20.902 20.903 20.902 1.46 0 2.917-.15 4.332-.45a.816.816 0 00-.337-1.597c-1.04.22-2.107.351-3.18.396v-1.345a.816.816 0 10-1.632 0v1.345a19.196 19.196 0 01-12.213-5.067l.945-.946a.816.816 0 00-1.154-1.154l-.945.945a19.196 19.196 0 01-5.068-12.213h1.346a.816.816 0 100-1.633H6.309a19.196 19.196 0 015.068-12.213l.945.946a.816.816 0 001.155-1.155l-.946-.945a19.196 19.196 0 0112.213-5.068v1.346a.816.816 0 001.633 0V6.548a19.196 19.196 0 0112.213 5.068l-.945.946a.816.816 0 001.154 1.154l.946-.946a19.196 19.196 0 015.045 14.26l-.806-.922a.816.816 0 10-1.23 1.075l1.963 2.243a.83.83 0 001.17.213l2.513-1.812a.817.817 0 00.184-1.14z"/><path d="M34.848 24.984H28.76a3.314 3.314 0 00-2.383-2.383v-9.462a.816.816 0 10-1.633 0V22.6a3.307 3.307 0 00-2.484 3.2 3.305 3.305 0 003.302 3.302 3.307 3.307 0 003.199-2.486h6.088a.816.816 0 100-1.632zm-9.287 2.485a1.67 1.67 0 01-1.67-1.67c0-.92.75-1.668 1.67-1.668.92 0 1.669.749 1.669 1.669s-.749 1.669-1.67 1.669z"/><path d="M54.184 42.679c.45 0 .816-.366.816-.817v-4.547a5.015 5.015 0 00-4.718-5 25.6 25.6 0 00.84-6.515C51.121 11.674 39.688.24 25.56.24 11.434.24 0 11.67 0 25.8c0 14.126 11.432 25.56 25.56 25.56 2.39 0 4.748-.33 7.026-.98a5.016 5.016 0 004.969 4.38H49.99A5.015 5.015 0 0055 49.752V45.68a.816.816 0 10-1.633 0v4.072a3.38 3.38 0 01-3.377 3.377H37.555a3.38 3.38 0 01-3.377-3.377V37.315a3.38 3.38 0 013.377-3.377H49.99a3.38 3.38 0 013.377 3.377v4.547c0 .451.365.817.816.817zm-21.639-5.364v11.376a23.918 23.918 0 01-6.984 1.037c-13.225 0-23.928-10.702-23.928-23.928 0-13.224 10.702-23.928 23.928-23.928 13.224 0 23.928 10.702 23.928 23.928 0 2.212-.302 4.397-.897 6.506H37.555a5.015 5.015 0 00-5.01 5.01z"/></g><defs><clipPath id="clip0"><path fill="#fff" d="M0 0h55v55H0z"/></clipPath></defs></svg>