<svg width="55" height="55" fill="none" xmlns="http://www.w3.org/2000/svg"><g clip-path="url(#clip0)" fill="#E7272E"><path d="M14.18 31.797a.806.806 0 100-1.611h-3.798a.806.806 0 100 1.611h3.797zm22.202 0a.806.806 0 100-1.611h-3.797a.806.806 0 100 1.611h3.797zM21.15 35.02a.806.806 0 00-1.164.32c-.183.368-.04.82.305 1.044.89.578 1.51.764 2.285.817v.657c0 .44.34.826.782.839a.806.806 0 00.83-.806v-.763c1.545-.349 2.537-1.649 2.753-2.931.275-1.637-.58-3.06-2.18-3.625-.188-.066-.38-.136-.573-.208v-3.209c.449.132.712.357.731.373l.158.127a.804.804 0 10.985-1.27c-.54-.41-1.101-.747-1.874-.88v-.582c0-.441-.34-.826-.78-.84a.806.806 0 00-.832.806v.675c-.085.02-.172.043-.26.07-1.057.318-1.846 1.221-2.06 2.357-.196 1.039.139 2.042.873 2.618.37.29.828.557 1.447.836v4.14c-.509-.05-.854-.191-1.426-.565zm.974-5.68c-.256-.2-.367-.612-.285-1.05.07-.372.3-.812.738-1.032v2.383a3.868 3.868 0 01-.454-.3zm2.1 2.752c1.258.444 1.18 1.519 1.127 1.837-.1.593-.495 1.22-1.163 1.512v-3.362l.036.013z"/><path d="M41.955 24.028a2.5 2.5 0 01-2.266-2.477.974.974 0 00-.971-.974H8.175a.972.972 0 00-.971.975 2.5 2.5 0 01-2.266 2.476.976.976 0 00-.884.967v4.11a.806.806 0 101.611 0v-3.567a4.138 4.138 0 003.1-3.35h29.363a4.138 4.138 0 003.1 3.35V36.52c-1.842.44-3.192 2.14-3.15 4.071H8.815c.04-1.944-1.315-3.632-3.149-4.071v-3.648a.806.806 0 10-1.611 0v4.19c0 .5.388.925.883.968a2.5 2.5 0 012.267 2.475c0 .175-.02.35-.056.523a.97.97 0 00.949 1.174h30.699a.97.97 0 00.949-1.175 2.488 2.488 0 01-.056-.522 2.5 2.5 0 012.266-2.475.976.976 0 00.884-.968V24.995c0-.5-.388-.925-.884-.967z"/><path d="M54.194 22.533c.445 0 .806-.36.806-.805V11.615a2.775 2.775 0 00-2.772-2.772H10.879a2.775 2.775 0 00-2.772 2.772v1.118H6.826a2.775 2.775 0 00-2.772 2.773v1.118H2.772A2.775 2.775 0 000 19.396v23.989a2.775 2.775 0 002.772 2.772h41.349a2.776 2.776 0 002.772-2.772v-1.118h1.281a2.775 2.775 0 002.772-2.773v-1.118h1.282A2.775 2.775 0 0055 35.604V25.566a.806.806 0 10-1.611 0v10.038c0 .64-.521 1.16-1.161 1.16h-1.282V15.506a2.775 2.775 0 00-2.772-2.773H9.72v-1.118c0-.64.52-1.16 1.16-1.16h41.349c.64 0 1.16.52 1.16 1.16v10.113c0 .445.361.805.806.805zm-8.913 20.852c0 .64-.52 1.16-1.16 1.16H2.772c-.64 0-1.16-.52-1.16-1.16V19.396c0-.64.52-1.16 1.16-1.16h41.349c.64 0 1.16.52 1.16 1.16v23.989zm4.054-27.88v23.99c0 .64-.52 1.16-1.16 1.16h-1.282V19.396a2.775 2.775 0 00-2.773-2.772H5.666v-1.118c0-.64.52-1.161 1.16-1.161h41.35c.64 0 1.16.52 1.16 1.16z"/></g><defs><clipPath id="clip0"><path fill="#fff" d="M0 0h55v55H0z"/></clipPath></defs></svg>