<svg width="55" height="55" fill="none" xmlns="http://www.w3.org/2000/svg"><g clip-path="url(#clip0)" fill="#E7272E"><path d="M51.28 25.422l-1.34-1.065.345-.489 1.463-2.077a3.015 3.015 0 00-.59-4.095 3.015 3.015 0 00-4.122.356l-1.69 1.897-2.022 2.27v.001l-6.786 7.62a39.872 39.872 0 00-4.252 5.738.806.806 0 001.376.839 38.233 38.233 0 014.08-5.506l6.279-7.051 2.757 2.187-5.44 7.718a38.258 38.258 0 01-4.434 5.224l-3.953 3.887a.091.091 0 01-.12.007l-2.035-1.615a.09.09 0 01-.021-.118l.892-1.463a.806.806 0 00-1.375-.84l-.893 1.464a1.697 1.697 0 00-.227 1.147c-.726.692-1.466 1.029-2.302 1.053-.5.014-.915.4-.968.896l-.561 5.264a1.15 1.15 0 001.52 1.207l5-1.743c.471-.165.752-.658.652-1.147-.166-.819-.007-1.617.502-2.481.39-.03.77-.19 1.066-.482l3.952-3.887a39.853 39.853 0 004.623-5.445l5.877-8.34.477-.677 1.27 1.008c.2.16.234.453.075.653l-3.773 4.756a.806.806 0 001.262 1.001l3.773-4.755a2.079 2.079 0 00-.336-2.917zM28.443 47.62l1.338-1.685a.806.806 0 00-1.262-1.002l-1.338 1.686.271-2.542c.96-.135 1.84-.562 2.662-1.294l1.398 1.11c-.526.966-.742 1.92-.655 2.886l-2.414.841zM48.24 19.124a1.403 1.403 0 012.192 1.74l-.972 1.379-2.343-1.859 1.123-1.26zm-2.196 2.466l2.486 1.972-.822 1.166-2.613-2.073.949-1.065zM7.142 48.582a.805.805 0 001.037.473c.042-.016.772-.29 1.713-.733a3.428 3.428 0 001.878.701c2.018.14 2.983-.259 3.622-.523.537-.221.593-.245 1.272.235.866.61 2.088.81 3.115.81a6.53 6.53 0 001.345-.128.806.806 0 10-.345-1.574c-.688.15-2.328.18-3.186-.425-1.307-.922-1.963-.76-2.817-.407-.558.231-1.254.519-2.894.405a2.11 2.11 0 01-.216-.026c1.772-1.054 2.675-2.067 2.753-3.088.047-.597-.169-1.462-1.457-2.186-1.7-.956-2.83-.386-3.353.038-1.078.877-1.489 2.688-.977 4.305.063.199.138.387.224.566-.713.322-1.233.517-1.241.52a.806.806 0 00-.473 1.037zm3.484-5.177a.88.88 0 01.572-.196c.279 0 .604.104.974.312.2.112.66.4.641.657-.028.368-.696 1.145-2.485 2.12l-.026.014a2.626 2.626 0 01-.134-.339c-.305-.963-.1-2.115.458-2.568zM30.09 16.191H8.311a.806.806 0 000 1.611h21.78a.806.806 0 100-1.611zm0 4.726H8.311a.806.806 0 100 1.612h21.78a.806.806 0 100-1.612zm.806 5.533a.806.806 0 00-.806-.807H8.311a.806.806 0 000 1.612h21.78a.806.806 0 00.805-.806zM8.311 31.981h9.255a.806.806 0 000-1.611H8.31a.806.806 0 000 1.611z"/><path d="M44.414 34.51a.806.806 0 00-.806.805v15.292a2.785 2.785 0 01-2.781 2.782H7.096a2.785 2.785 0 01-2.782-2.782V4.393a2.785 2.785 0 012.782-2.782H33.35c.109 0 .215.011.32.029v5.515a4.398 4.398 0 004.394 4.393h5.515c.017.105.028.212.028.32v6.206a.806.806 0 101.612 0v-6.206a3.5 3.5 0 00-1.032-2.491l-8.345-8.345A3.5 3.5 0 0033.35 0H7.096a4.398 4.398 0 00-4.394 4.393v46.214A4.398 4.398 0 007.096 55h33.73a4.398 4.398 0 004.394-4.393V35.315a.805.805 0 00-.806-.806zM42.47 9.936h-4.404a2.785 2.785 0 01-2.782-2.782V2.751l7.186 7.186z"/><path d="M8.877 10.528h8.428c.757 0 1.372-.616 1.372-1.372V6.087c0-.756-.615-1.372-1.372-1.372H8.877c-.756 0-1.372.616-1.372 1.372v3.069c0 .756.616 1.372 1.372 1.372zm.24-4.202h7.949v2.59h-7.95v-2.59z"/></g><defs><clipPath id="clip0"><path fill="#fff" d="M0 0h55v55H0z"/></clipPath></defs></svg>