<svg width="55" height="55" fill="none" xmlns="http://www.w3.org/2000/svg"><g clip-path="url(#clip0)" fill="#E7272E"><path d="M22.233 31.771a.81.81 0 100-1.62H9.842a6.062 6.062 0 01-6.056-6.056c0-2.999 2.227-5.566 5.188-5.99h1.68a.81.81 0 100-1.622H9.396a7.136 7.136 0 01-.466-5.093.81.81 0 10-1.56-.44 8.763 8.763 0 00.353 5.768c-3.235.93-5.558 3.928-5.558 7.377 0 4.233 3.444 7.677 7.676 7.677h12.392zm25.045-15.053a8.764 8.764 0 00.682-3.389c0-4.777-3.846-8.67-8.604-8.754C38.162 1.883 35.466 0 32.336 0A7.62 7.62 0 0027.5 1.715 7.62 7.62 0 0022.663 0c-3.128 0-5.824 1.883-7.018 4.574a8.756 8.756 0 00-6.467 3.024.81.81 0 001.225 1.061 7.137 7.137 0 014.723-2.433c-.09.47-.139.955-.139 1.45a.81.81 0 101.621 0 6.062 6.062 0 016.055-6.055c1.61 0 3.124.624 4.266 1.758a.81.81 0 001.142 0 6.018 6.018 0 014.266-1.758 6.062 6.062 0 016.055 6.055.81.81 0 101.621 0 7.68 7.68 0 00-.14-1.451c3.622.34 6.467 3.395 6.467 7.104a7.136 7.136 0 01-.736 3.154h-1.037a.81.81 0 100 1.621h1.46c2.96.425 5.187 2.992 5.187 5.991a6.062 6.062 0 01-6.056 6.056H32.337a.81.81 0 100 1.62h12.822c4.233 0 7.677-3.443 7.677-7.676 0-3.449-2.323-6.448-5.557-7.377z"/><path d="M36.643 34.086h-6.774l.092-8.087a1.128 1.128 0 00-.857-1.111 1.128 1.128 0 00-1.28.577l-7.728 14.892c-.227.44-.21.954.047 1.377.257.423.706.675 1.2.675h5.66l-2.987 11.165c-.145.542.122 1.1.635 1.328a1.127 1.127 0 001.41-.421l6.216-9.634a.81.81 0 10-1.362-.878l-4.529 7.019 2.456-9.18a.81.81 0 00-.783-1.02h-6.36l6.618-12.754-.078 6.853a.81.81 0 00.81.82h7.197L32.8 41.048a.81.81 0 001.362.879l3.662-5.676a1.404 1.404 0 00-1.18-2.166zm-6.88-26.338A6.012 6.012 0 0027.5 9.982a6.01 6.01 0 00-2.263-2.234.81.81 0 10-.793 1.413 4.399 4.399 0 012.246 3.833v.33a.81.81 0 001.62 0v-.33c0-1.588.86-3.056 2.246-3.833a.81.81 0 10-.793-1.413zm-8.986 9.385l-.183-.09a.81.81 0 10-.714 1.455l.183.09a4.726 4.726 0 012.5 3.08.81.81 0 101.572-.399 6.344 6.344 0 00-3.358-4.136zm10.674 5.121a.81.81 0 00.985-.585 4.725 4.725 0 012.501-3.081l.183-.09a.81.81 0 00-.714-1.455l-.183.09a6.344 6.344 0 00-3.357 4.136.81.81 0 00.585.985zm13.877 4.513a.81.81 0 00.81-.81v-.094a2.938 2.938 0 00-2.934-2.935.81.81 0 100 1.62c.724 0 1.314.59 1.314 1.315v.094c0 .447.363.81.81.81zm-36.467-.904v.093a.81.81 0 101.621 0v-.093c0-.725.59-1.315 1.314-1.315a.81.81 0 100-1.62 2.938 2.938 0 00-2.935 2.934zm1.873 18.464H7.742l3.356-7.55a.81.81 0 10-1.482-.657l-3.861 8.688a.81.81 0 00.74 1.14H9.65l-1.813 6.146a.81.81 0 101.555.459l2.12-7.187a.81.81 0 00-.778-1.04zm35.356 0h-2.992l3.355-7.55a.81.81 0 10-1.481-.657l-3.862 8.688a.81.81 0 00.74 1.14h3.155l-1.812 6.146a.81.81 0 101.554.459l2.12-7.187a.81.81 0 00-.778-1.04z"/></g><defs><clipPath id="clip0"><path fill="#fff" d="M0 0h55v55H0z"/></clipPath></defs></svg>