<svg width="55" height="55" fill="none" xmlns="http://www.w3.org/2000/svg"><g clip-path="url(#clip0)"><path d="M55 37.414c0-7.303-5.935-13.304-13.304-13.304-4.458 0-8.41 2.204-10.826 5.58H14.093v-3.225c0-1.032-.839-1.87-1.87-1.87H8.412a1.872 1.872 0 00-1.871 1.87v3.224h-.917a4.024 4.024 0 01-4.02-4.02v-5.998a4.024 4.024 0 014.02-4.02h38.06a4.024 4.024 0 014.02 4.02v3.631a.802.802 0 101.604 0v-3.631a5.63 5.63 0 00-5.624-5.625h-8.33v-3.48a6.29 6.29 0 00-6.283-6.284h-8.834a6.29 6.29 0 00-6.284 6.284v3.48H5.624A5.63 5.63 0 000 19.671v23.797a5.63 5.63 0 005.624 5.624h25.648a.802.802 0 100-1.605H5.623a4.024 4.024 0 01-4.02-4.02V29.599a5.607 5.607 0 004.02 1.696h.917v.816a3.78 3.78 0 003.776 3.776 3.78 3.78 0 003.776-3.776v-.816h15.793a13.221 13.221 0 00-1.494 6.12c0 7.305 5.936 13.304 13.304 13.304C49.057 50.718 55 44.724 55 37.414zM30.522 14.046H18.786v-3.48c0-.8.65-1.452 1.45-1.452h8.835c.8 0 1.451.651 1.451 1.451v3.481zm-14.964-3.48a4.684 4.684 0 014.679-4.68h8.834a4.684 4.684 0 014.679 4.68v3.48h-1.623v-3.48a3.06 3.06 0 00-3.056-3.056h-8.834a3.06 3.06 0 00-3.056 3.056v3.48h-1.623v-3.48zM8.412 26.198h3.81c.147 0 .266.12.266.266v1.23H8.146v-1.23c0-.147.12-.266.266-.266zm4.076 5.91a2.174 2.174 0 01-2.17 2.172 2.174 2.174 0 01-2.172-2.171V29.3h4.342v2.81zm39.686 10.505c-1.023-.29-2.302-.53-3.758-.709a25.293 25.293 0 000-8.983c1.456-.179 2.735-.418 3.758-.708a11.628 11.628 0 011.221 5.2c0 1.867-.44 3.632-1.22 5.2zm-5.74-11.106a57.73 57.73 0 01-3.936.18v-5.836c2.054.693 3.342 3.572 3.937 5.656zm-5.54-5.661v5.842c-1.372-.018-2.7-.08-3.935-.18.846-2.977 2.297-5.124 3.934-5.662zm-3.938 17.472a57.63 57.63 0 013.938-.18v5.84c-1.637-.535-3.091-2.67-3.938-5.66zm5.542 5.657V43.14c1.372.017 2.7.08 3.937.18-.595 2.084-1.883 4.963-3.937 5.657zm0-7.442v-8.24a58.65 58.65 0 004.313-.205c.534 2.76.538 5.867 0 8.65a58.593 58.593 0 00-4.313-.205zm8.828-10.755c-.908.228-2.018.42-3.266.567-.53-1.975-1.315-3.653-2.279-4.895a11.761 11.761 0 015.545 4.328zM37.6 26.455c-.958 1.236-1.74 2.909-2.27 4.891-1.247-.148-2.357-.34-3.265-.567a11.762 11.762 0 015.535-4.324zm-6.382 5.76c1.023.29 2.302.528 3.759.707-.17.915-.29 1.88-.353 2.888a.802.802 0 101.602.1 22.07 22.07 0 01.357-2.82 58.67 58.67 0 004.31.204v8.24a58.669 58.669 0 00-4.31.205 21.878 21.878 0 01-.31-2.196.802.802 0 10-1.598.143c.068.758.171 1.5.306 2.219-1.459.18-2.74.418-3.764.709a11.627 11.627 0 01-1.22-5.2c0-1.867.44-3.633 1.22-5.2zm.847 11.833c.91-.228 2.023-.42 3.275-.568.458 1.705 1.183 3.495 2.27 4.896a11.76 11.76 0 01-5.545-4.328zm13.716 4.329c.964-1.242 1.749-2.92 2.279-4.896 1.248.148 2.358.34 3.266.567a11.76 11.76 0 01-5.545 4.329z" fill="#E7272E"/></g><defs><clipPath id="clip0"><path fill="#fff" d="M0 0h55v55H0z"/></clipPath></defs></svg>