<svg width="45" height="45" fill="none" xmlns="http://www.w3.org/2000/svg"><g clip-path="url(#clip0)" fill="#fff"><path d="M43.087 1.126H11.654A1.915 1.915 0 009.741 3.04v8.67L8.304 9.553a2.223 2.223 0 00-3-.675l-2.958 1.778a4.34 4.34 0 00-1.982 2.57c-1.079 3.929-.278 10.696 9.655 20.631 7.9 7.891 13.789 10.017 17.848 10.017a10.48 10.48 0 002.783-.364 4.346 4.346 0 002.572-1.98l1.776-2.96a2.223 2.223 0 00-.675-2.997l-7.082-4.72a2.235 2.235 0 00-2.991.486l-2.062 2.65a.718.718 0 01-.918.194l-.392-.216c-1.291-.703-2.898-1.58-6.144-4.825-.35-.351-.669-.68-.967-.994h29.32c1.053 0 1.909-.85 1.913-1.904V3.039a1.915 1.915 0 00-1.913-1.913zM20.16 35.285l.38.209a2.21 2.21 0 002.833-.584l2.061-2.65a.73.73 0 01.976-.158l7.08 4.72a.725.725 0 01.22.975l-1.775 2.96a2.85 2.85 0 01-1.681 1.306c-3.547.975-9.753.15-19.172-9.27-9.42-9.42-10.242-15.626-9.269-19.17a2.85 2.85 0 011.305-1.68l2.96-1.777a.725.725 0 01.975.22l4.723 7.08c.21.318.14.742-.159.976l-2.65 2.062a2.21 2.21 0 00-.584 2.832l.21.38c.75 1.377 1.682 3.088 5.081 6.487 3.4 3.398 5.11 4.331 6.486 5.082zm23.34-9.04a.41.41 0 01-.413.404H12.413A18.917 18.917 0 019.91 23l-.216-.394a.716.716 0 01.193-.916l2.652-2.063a2.234 2.234 0 00.485-2.991l-1.782-2.675V3.038a.408.408 0 01.412-.412h31.433a.408.408 0 01.412.412v23.205z"/><path d="M40.504 4.6l-12.538 9.509a1.012 1.012 0 01-1.19 0l-12.533-9.51a.75.75 0 00-.907 1.197l12.535 9.508a2.525 2.525 0 003 0l12.54-9.508a.75.75 0 10-.907-1.196zM20.968 15.367l-7.684 8.229a.75.75 0 001.097 1.023l7.685-8.233a.75.75 0 00-1.098-1.02zm12.854 0a.75.75 0 00-1.097 1.023l7.683 8.23a.75.75 0 001.097-1.024l-7.683-8.23z"/></g><defs><clipPath id="clip0"><path fill="#fff" d="M0 0h45v45H0z"/></clipPath></defs></svg>