<svg width="24" height="22" fill="none" xmlns="http://www.w3.org/2000/svg"><path d="M9.6 13.4h4.8V6.2H18l-6-6-6 6h3.6v7.2zm13.606 1.838c-.252-.268-1.933-2.067-2.413-2.536a1.804 1.804 0 00-1.25-.502h-2.11l3.678 3.593h-4.253a.328.328 0 00-.288.16l-.98 2.247H8.41l-.98-2.248a.331.331 0 00-.287-.16H2.89L6.565 12.2H4.458c-.476 0-.931.19-1.25.502-.48.47-2.161 2.269-2.413 2.536-.587.626-.91 1.124-.756 1.74l.673 3.688c.153.617.829 1.123 1.502 1.123H21.79c.673 0 1.348-.506 1.502-1.123l.673-3.689c.151-.615-.17-1.113-.758-1.739z" fill="#088EC9"/></svg>